<?xml version="1.0" standalone="no"?>
<svg viewBox="0 0 200 200" xmlns="http://www.w3.org/2000/svg">
  <path fill="#0F172A" d="M23.9,-27.3C31.6,-27.2,39.1,-21.2,47.7,-11.5C56.4,-1.8,66.2,11.4,61.8,18.6C57.5,25.8,38.8,26.8,26.2,30.8C13.5,34.9,6.7,41.9,-2.1,44.8C-10.9,47.6,-21.8,46.3,-31.8,41.4C-41.8,36.5,-50.9,28,-48.7,19.5C-46.5,10.9,-32.9,2.3,-32.2,-13.7C-31.5,-29.8,-43.6,-53.3,-40.4,-54.8C-37.2,-56.4,-18.6,-36,-5.3,-28.8C8.1,-21.5,16.1,-27.4,23.9,-27.3Z" transform="translate(100 100)" />
</svg>
